<svg width="61" height="61" viewBox="0 0 61 61" fill="none" xmlns="http://www.w3.org/2000/svg">
<path d="M40.8443 41.7876L38.2665 44.8043C38.7309 45.3172 38.99 45.8893 38.99 46.4937C38.99 48.6926 35.5559 50.48 31.3226 50.48C27.0893 50.48 23.6551 48.6969 23.6551 46.4937C23.6551 45.7901 24.0072 45.1286 24.6271 44.5544L22.3851 41.709C18.7436 43.3251 16.3916 45.8946 16.3916 48.7821C16.3916 53.6853 23.1703 57.6598 31.5321 57.6598C39.8939 57.6598 46.6715 53.6853 46.6715 48.7821C46.6607 45.9367 44.3853 43.4037 40.8443 41.7876Z" fill="white"/>
<path d="M31.4683 48.5544C31.1163 48.5544 30.1865 47.7399 29.8431 47.3272C26.0547 42.7634 22.2987 38.1694 18.5147 33.6056C14.7306 29.0417 13.2425 23.839 14.303 17.9834C15.9952 8.59391 24.681 2.13924 34.6887 3.96326C42.0116 5.30031 46.5981 9.84477 48.5365 17.0191C48.7817 17.9263 49.2439 20.707 49.0765 23.018C48.7449 27.4752 47.2244 30.3109 44.8864 33.1638C40.9987 37.9123 37.094 42.6481 33.1725 47.3714C32.8377 47.7701 32.0807 48.5576 31.4683 48.5544ZM31.5483 13.9895C29.7169 13.9949 27.962 14.7231 26.6671 16.015C25.3721 17.307 24.6422 19.0577 24.6367 20.8848C24.6367 24.6417 27.7491 27.7392 31.5277 27.751C35.2697 27.7618 38.4241 24.618 38.4176 20.8816C38.4068 17.1042 35.3021 13.9906 31.5483 13.9906V13.9895Z" fill="#41BAE3"/>
</svg>
