<svg width="61" height="61" viewBox="0 0 61 61" fill="none" xmlns="http://www.w3.org/2000/svg">
<g clip-path="url(#clip0_7_847)">
<path d="M1.97998 11.7256C9.41102 16.1058 16.8421 20.4848 24.2731 24.8626C26.461 26.149 28.665 26.1304 30.8492 24.8439C38.0546 20.6012 45.2586 16.3565 52.4615 12.1097C52.6363 12.0065 52.8161 11.9133 53.0537 11.7828V25.4803C46.9368 23.5612 41.2435 24.389 36.2151 28.4286C31.2051 32.4559 29.1415 37.8553 29.5909 44.3387H8.16704C5.02487 44.3387 2.81354 42.5687 2.08464 39.4799C2.02469 39.2627 1.99079 39.039 1.98367 38.8137L1.97998 11.7256Z" fill="white"/>
<path d="M45.7301 56.2421C44.8018 56.0209 43.8426 55.8879 42.9512 55.5622C37.5952 53.6058 34.3521 49.8097 33.569 44.0871C32.5569 36.6752 37.6506 29.865 45.0123 28.6208C52.6116 27.3355 59.9893 32.8892 60.829 40.6006C61.0026 42.1891 61.0543 43.8385 60.829 45.4109C60.4707 47.9155 58.875 49.535 56.4507 50.1168C53.9426 50.7183 51.8618 49.8682 50.2809 47.7986C50.2316 47.734 50.1836 47.6743 50.2205 47.7166C49.121 47.9204 48.0978 48.256 47.0673 48.2759C44.1751 48.3319 41.6375 45.954 41.3259 43.0355C41.0034 40.0039 43.0189 37.1463 45.9111 36.5373C49.7034 35.738 53.0931 38.526 53.1017 42.4476C53.1017 43.089 53.0807 43.7304 53.1103 44.3692C53.1258 44.8708 53.3261 45.3485 53.672 45.7089C54.0179 46.0694 54.4845 46.2866 54.9806 46.3182C55.9656 46.3792 56.9395 45.6048 57.0084 44.552C57.1759 41.9417 56.9727 39.4024 55.5309 37.0942C54.4525 35.3512 52.8636 33.9901 50.9847 33.1995C49.1057 32.4088 47.0296 32.2278 45.0442 32.6815C43.0587 33.1353 41.2623 34.2012 39.9038 35.7317C38.5453 37.2622 37.692 39.1814 37.4623 41.2233C36.8085 47.0814 41.156 52.067 47.0993 52.2708C48.4414 52.3168 49.3291 53.2913 49.153 54.5529C49.0299 55.423 48.4327 55.8991 47.694 56.2384C47.0562 56.4559 46.8334 56.441 45.7301 56.2421ZM49.169 42.3842C49.1646 41.8623 48.9612 41.3622 48.6009 40.9879C48.2407 40.6136 47.7514 40.3938 47.2347 40.3743C46.1968 40.3495 45.2647 41.2618 45.2413 42.3233C45.2179 43.3848 46.118 44.3121 47.1744 44.3357C48.2111 44.3618 49.1518 43.442 49.169 42.3842Z" fill="#41BAE3"/>
<path d="M52.236 7.65986C52.0649 7.768 51.8826 7.88981 51.693 8.00043C44.1413 12.4503 36.5896 16.9022 29.0379 21.3562C28.0148 21.9615 27.1184 21.9901 26.0669 21.3649C18.5407 16.896 11.0025 12.4494 3.45243 8.02529C3.24558 7.90099 3.04242 7.77669 2.79248 7.62132C3.90061 5.8389 5.43229 4.85445 7.4614 4.66304C7.62393 4.64812 7.78891 4.65682 7.9539 4.65682H47.1374C49.2404 4.65682 50.8718 5.56544 52.0809 7.28199C52.1272 7.34915 52.1684 7.41978 52.204 7.49329C52.222 7.54712 52.2327 7.60315 52.236 7.65986Z" fill="white"/>
</g>
<defs>
<clipPath id="clip0_7_847">
<rect width="60" height="61" fill="white" transform="translate(0.97998)"/>
</clipPath>
</defs>
</svg>
