<svg width="60" height="61" viewBox="0 0 60 61" fill="none" xmlns="http://www.w3.org/2000/svg">
<path d="M9.10758 57.6497C8.11529 57.2401 7.78671 56.4756 7.80971 55.4384C7.86995 52.7091 7.80971 49.9743 7.93457 47.2482C8.0441 44.8386 8.67386 42.5178 9.59606 40.2857C10.7724 37.4381 12.5116 34.9716 14.6342 32.757C16.1471 31.1798 17.6531 29.5961 19.1521 28.0058C19.6307 27.4965 20.1674 27.2293 20.8837 27.2545C21.8836 27.2906 22.8858 27.2643 23.9799 27.2643C23.9799 26.4758 23.9679 25.7025 23.9799 24.9293C23.9867 24.5621 24.1156 24.2076 24.3463 23.9218C24.5769 23.636 24.8962 23.4352 25.2537 23.351C26.005 23.1802 26.81 23.535 27.1233 24.2404C27.2509 24.5598 27.3195 24.8997 27.3259 25.2436C27.3566 25.8942 27.3347 26.5469 27.3347 27.2315H32.6367C32.6367 26.7003 32.6302 26.1636 32.6367 25.6269C32.6315 25.3 32.6538 24.9732 32.7036 24.65C32.8711 23.7836 33.5962 23.2634 34.4965 23.328C34.8998 23.3609 35.2763 23.543 35.5526 23.8387C35.8288 24.1344 35.9849 24.5225 35.9904 24.9271C36.0079 25.6872 35.9904 26.4473 35.9904 27.2643C37.1141 27.2643 38.1809 27.2753 39.2531 27.2643C39.5083 27.2516 39.7631 27.2948 39.9998 27.3909C40.2364 27.487 40.4493 27.6337 40.6233 27.8207C42.5498 29.859 44.507 31.8731 46.3865 33.9541C49.04 36.8585 50.8416 40.4382 51.5933 44.2998C51.9218 45.9843 52.0565 47.7213 52.1332 49.4409C52.223 51.4397 52.1266 53.4462 52.1661 55.4483C52.1858 56.4877 51.8496 57.2467 50.8627 57.6585L9.10758 57.6497ZM29.9895 51.5306C34.7692 51.5306 38.7165 47.5954 38.734 42.8092C38.7515 38.0229 34.7363 34.0132 29.972 34.0549C25.165 34.0954 21.2418 38.035 21.256 42.8048C21.2703 47.5746 25.211 51.5295 29.9895 51.5306Z" fill="white"/>
<path d="M2 19.173C2.06462 18.874 2.12814 18.5739 2.19276 18.2749C2.77763 15.5839 4.31316 13.4745 6.29994 11.6629C9.47615 8.7638 13.2602 6.93474 17.3181 5.63906C21.9181 4.16486 26.6397 3.47817 31.4643 3.69284C37.9723 3.98198 44.1582 5.50655 49.8097 8.85472C52.4196 10.4012 54.7383 12.2916 56.3735 14.9059C57.8783 17.3155 58.4041 19.8992 57.6243 22.6822C57.1467 24.3853 55.747 26.0446 53.2115 26.1125C50.6464 26.1804 48.0693 26.199 45.5108 26.0413C42.7837 25.8726 40.9108 23.0644 41.5745 20.3986C41.6742 19.9934 41.7793 19.5892 41.8954 19.1325C33.9899 15.378 26.0834 15.2805 18.1001 19.0723C18.2031 19.5005 18.3082 19.9342 18.4134 20.368C19.0836 23.1619 16.9895 25.9734 14.1112 26.0413C11.6524 26.0983 9.19029 26.0906 6.73256 26.0413C4.5563 25.9964 2.84663 24.5594 2.32967 22.4631C2.21357 21.99 2.11062 21.5136 2.0011 21.0393L2 19.173Z" fill="#41BAE3"/>
<path d="M29.9748 37.3956C32.932 37.377 35.4171 39.8522 35.4072 42.8028C35.3963 45.7315 32.9462 48.1915 30.0175 48.2134C27.0888 48.2353 24.5796 45.7282 24.584 42.7908C24.5884 39.8533 27.0264 37.4153 29.9748 37.3956Z" fill="#41BAE3"/>
</svg>
